<mxfile host="app.diagrams.net" modified="2023-06-28T03:54:17.425Z" agent="Mozilla/5.0 (Windows NT 10.0; Win64; x64) AppleWebKit/537.36 (KHTML, like Gecko) Chrome/114.0.0.0 Safari/537.36" etag="t96htS9JY3ofVF-yY7mX" version="21.5.0" type="device">
  <diagram name="페이지-1" id="ZXCMcGrSC4GFnHkh8wil">
    <mxGraphModel dx="1434" dy="756" grid="1" gridSize="10" guides="1" tooltips="1" connect="1" arrows="1" fold="1" page="1" pageScale="1" pageWidth="4681" pageHeight="3300" math="0" shadow="0">
      <root>
        <mxCell id="0" />
        <mxCell id="1" parent="0" />
        <mxCell id="TkZetmJvEQrRJyqSqRA8-2" style="edgeStyle=orthogonalEdgeStyle;rounded=0;orthogonalLoop=1;jettySize=auto;html=1;entryX=0;entryY=0.5;entryDx=0;entryDy=0;" edge="1" parent="1" source="aUjsKichyij9XfzuqqOf-1" target="aUjsKichyij9XfzuqqOf-2">
          <mxGeometry relative="1" as="geometry" />
        </mxCell>
        <mxCell id="TkZetmJvEQrRJyqSqRA8-11" style="edgeStyle=orthogonalEdgeStyle;rounded=0;orthogonalLoop=1;jettySize=auto;html=1;entryX=0;entryY=0.5;entryDx=0;entryDy=0;" edge="1" parent="1" source="aUjsKichyij9XfzuqqOf-1" target="TkZetmJvEQrRJyqSqRA8-10">
          <mxGeometry relative="1" as="geometry" />
        </mxCell>
        <mxCell id="aUjsKichyij9XfzuqqOf-1" value="Actor" style="shape=umlActor;verticalLabelPosition=bottom;verticalAlign=top;html=1;outlineConnect=0;" parent="1" vertex="1">
          <mxGeometry x="240" y="200" width="40" height="80" as="geometry" />
        </mxCell>
        <mxCell id="TkZetmJvEQrRJyqSqRA8-3" style="edgeStyle=orthogonalEdgeStyle;rounded=0;orthogonalLoop=1;jettySize=auto;html=1;entryX=0.5;entryY=1;entryDx=0;entryDy=0;entryPerimeter=0;" edge="1" parent="1" source="aUjsKichyij9XfzuqqOf-2" target="TkZetmJvEQrRJyqSqRA8-1">
          <mxGeometry relative="1" as="geometry">
            <Array as="points">
              <mxPoint x="420" y="320" />
              <mxPoint x="790" y="320" />
            </Array>
          </mxGeometry>
        </mxCell>
        <mxCell id="TkZetmJvEQrRJyqSqRA8-4" style="edgeStyle=orthogonalEdgeStyle;rounded=0;orthogonalLoop=1;jettySize=auto;html=1;entryX=0;entryY=0.5;entryDx=0;entryDy=0;" edge="1" parent="1" source="aUjsKichyij9XfzuqqOf-2" target="aUjsKichyij9XfzuqqOf-3">
          <mxGeometry relative="1" as="geometry" />
        </mxCell>
        <mxCell id="TkZetmJvEQrRJyqSqRA8-5" style="edgeStyle=orthogonalEdgeStyle;rounded=0;orthogonalLoop=1;jettySize=auto;html=1;entryX=0;entryY=0.5;entryDx=0;entryDy=0;" edge="1" parent="1" source="aUjsKichyij9XfzuqqOf-2" target="aUjsKichyij9XfzuqqOf-4">
          <mxGeometry relative="1" as="geometry" />
        </mxCell>
        <mxCell id="aUjsKichyij9XfzuqqOf-2" value="로그인" style="rounded=1;whiteSpace=wrap;html=1;" parent="1" vertex="1">
          <mxGeometry x="360" y="240" width="120" height="40" as="geometry" />
        </mxCell>
        <mxCell id="TkZetmJvEQrRJyqSqRA8-6" style="edgeStyle=orthogonalEdgeStyle;rounded=0;orthogonalLoop=1;jettySize=auto;html=1;entryX=0;entryY=0;entryDx=0;entryDy=52.5;entryPerimeter=0;" edge="1" parent="1" source="aUjsKichyij9XfzuqqOf-3" target="TkZetmJvEQrRJyqSqRA8-1">
          <mxGeometry relative="1" as="geometry" />
        </mxCell>
        <mxCell id="aUjsKichyij9XfzuqqOf-3" value="회원가입" style="rounded=1;whiteSpace=wrap;html=1;" parent="1" vertex="1">
          <mxGeometry x="560" y="160" width="120" height="40" as="geometry" />
        </mxCell>
        <mxCell id="TkZetmJvEQrRJyqSqRA8-7" style="edgeStyle=orthogonalEdgeStyle;rounded=0;orthogonalLoop=1;jettySize=auto;html=1;entryX=0;entryY=0;entryDx=0;entryDy=52.5;entryPerimeter=0;" edge="1" parent="1" source="aUjsKichyij9XfzuqqOf-4" target="TkZetmJvEQrRJyqSqRA8-1">
          <mxGeometry relative="1" as="geometry" />
        </mxCell>
        <mxCell id="aUjsKichyij9XfzuqqOf-4" value="아이디 비번찾기" style="rounded=1;whiteSpace=wrap;html=1;" parent="1" vertex="1">
          <mxGeometry x="560" y="240" width="120" height="40" as="geometry" />
        </mxCell>
        <mxCell id="TkZetmJvEQrRJyqSqRA8-1" value="DB" style="shape=cylinder3;whiteSpace=wrap;html=1;boundedLbl=1;backgroundOutline=1;size=15;" vertex="1" parent="1">
          <mxGeometry x="760" y="160" width="60" height="80" as="geometry" />
        </mxCell>
        <mxCell id="TkZetmJvEQrRJyqSqRA8-13" style="edgeStyle=orthogonalEdgeStyle;rounded=0;orthogonalLoop=1;jettySize=auto;html=1;entryX=0.5;entryY=0;entryDx=0;entryDy=0;entryPerimeter=0;" edge="1" parent="1" source="TkZetmJvEQrRJyqSqRA8-8" target="TkZetmJvEQrRJyqSqRA8-1">
          <mxGeometry relative="1" as="geometry" />
        </mxCell>
        <mxCell id="TkZetmJvEQrRJyqSqRA8-8" value="카카오DB" style="shape=cylinder3;whiteSpace=wrap;html=1;boundedLbl=1;backgroundOutline=1;size=15;" vertex="1" parent="1">
          <mxGeometry x="590" y="40" width="60" height="80" as="geometry" />
        </mxCell>
        <mxCell id="TkZetmJvEQrRJyqSqRA8-12" style="edgeStyle=orthogonalEdgeStyle;rounded=0;orthogonalLoop=1;jettySize=auto;html=1;entryX=0;entryY=0.5;entryDx=0;entryDy=0;entryPerimeter=0;" edge="1" parent="1" source="TkZetmJvEQrRJyqSqRA8-10" target="TkZetmJvEQrRJyqSqRA8-8">
          <mxGeometry relative="1" as="geometry">
            <Array as="points">
              <mxPoint x="420" y="80" />
            </Array>
          </mxGeometry>
        </mxCell>
        <mxCell id="TkZetmJvEQrRJyqSqRA8-10" value="카카오 로그인" style="rounded=1;whiteSpace=wrap;html=1;" vertex="1" parent="1">
          <mxGeometry x="360" y="160" width="120" height="40" as="geometry" />
        </mxCell>
      </root>
    </mxGraphModel>
  </diagram>
</mxfile>
